HIERARCHY
ROOT Hips
{
	OFFSET 0.000000 0.000000 0.000000
	CHANNELS 6 Xposition Yposition Zposition Zrotation Yrotation Xrotation 
	JOINT LHipJoint
	{
		OFFSET 0.000000 0.000000 0.000000
		CHANNELS 3 Zrotation Yrotation Xrotation
		JOINT LeftUpLeg
		{
			OFFSET 1.363060 -1.794630 0.839290
			CHANNELS 3 Zrotation Yrotation Xrotation
			JOINT LeftLeg
			{
				OFFSET 2.448110 -6.726130 0.000000
				CHANNELS 3 Zrotation Yrotation Xrotation
				JOINT LeftFoot
				{
					OFFSET 2.562200 -7.039590 0.000000
					CHANNELS 3 Zrotation Yrotation Xrotation
					JOINT LeftToeBase
					{
						OFFSET 0.157640 -0.433110 2.322550
						CHANNELS 3 Zrotation Yrotation Xrotation
						End Site
						{
							OFFSET 0.000000 0.000000 0.000000
						}
					}
				}
			}
		}
	}
	JOINT RHipJoint
	{
		OFFSET 0.000000 0.000000 0.000000
		CHANNELS 3 Zrotation Yrotation Xrotation
		JOINT RightUpLeg
		{
			OFFSET -1.305520 -1.794630 0.839290
			CHANNELS 3 Zrotation Yrotation Xrotation
			JOINT RightLeg
			{
				OFFSET -2.542530 -6.985550 0.000000
				CHANNELS 3 Zrotation Yrotation Xrotation
				JOINT RightFoot
				{
					OFFSET -2.568260 -7.056230 0.000000
					CHANNELS 3 Zrotation Yrotation Xrotation
					JOINT RightToeBase
					{
						OFFSET -0.164730 -0.452590 2.363150
						CHANNELS 3 Zrotation Yrotation Xrotation
						End Site
						{
							OFFSET 0.000000 0.000000 0.000000
						}
					}
				}
			}
		}
	}
	JOINT LowerBack
	{
		OFFSET 0.000000 0.000000 0.000000
		CHANNELS 3 Zrotation Yrotation Xrotation
		JOINT Spine
		{
			OFFSET 0.028270 2.035590 -0.193380
			CHANNELS 3 Zrotation Yrotation Xrotation
			JOINT Spine1
			{
				OFFSET 0.056720 2.048850 -0.042750
				CHANNELS 3 Zrotation Yrotation Xrotation
				JOINT Neck
				{
					OFFSET 0.000000 0.000000 0.000000
					CHANNELS 3 Zrotation Yrotation Xrotation
					JOINT Neck1
					{
						OFFSET -0.054170 1.746240 0.172020
						CHANNELS 3 Zrotation Yrotation Xrotation
						JOINT Head
						{
							OFFSET 0.104070 1.761360 -0.123970
							CHANNELS 3 Zrotation Yrotation Xrotation
							End Site
							{
								OFFSET 0.000000 0.000000 0.000000
							}
						}
					}
				}
				JOINT LeftShoulder
				{
					OFFSET 0.000000 0.000000 0.000000
					CHANNELS 3 Zrotation Yrotation Xrotation
					JOINT LeftArm
					{
						OFFSET 3.362410 1.200890 -0.311210
						CHANNELS 3 Zrotation Yrotation Xrotation
						JOINT LeftForeArm
						{
							OFFSET 4.983000 -0.000000 -0.000000
							CHANNELS 3 Zrotation Yrotation Xrotation
							JOINT LeftHand
							{
								OFFSET 3.483560 -0.000000 -0.000000
								CHANNELS 3 Zrotation Yrotation Xrotation
								JOINT LeftFingerBase
								{
									OFFSET 0.000000 0.000000 0.000000
									CHANNELS 3 Zrotation Yrotation Xrotation
									JOINT LeftHandIndex1
									{
										OFFSET 0.715260 -0.000000 -0.000000
										CHANNELS 3 Zrotation Yrotation Xrotation
										End Site
										{
											OFFSET 0.000000 0.000000 0.000000
										}
									}
								}
								JOINT LThumb
								{
									OFFSET 0.000000 0.000000 0.000000
									CHANNELS 3 Zrotation Yrotation Xrotation
									End Site
									{
										OFFSET 0.000000 0.000000 0.000000
									}
								}
							}
						}
					}
				}
				JOINT RightShoulder
				{
					OFFSET 0.000000 0.000000 0.000000
					CHANNELS 3 Zrotation Yrotation Xrotation
					JOINT RightArm
					{
						OFFSET -3.136600 1.374050 -0.404650
						CHANNELS 3 Zrotation Yrotation Xrotation
						JOINT RightForeArm
						{
							OFFSET -5.241900 -0.000000 -0.000000
							CHANNELS 3 Zrotation Yrotation Xrotation
							JOINT RightHand
							{
								OFFSET -3.444170 -0.000000 -0.000000
								CHANNELS 3 Zrotation Yrotation Xrotation
								JOINT RightFingerBase
								{
									OFFSET 0.000000 0.000000 0.000000
									CHANNELS 3 Zrotation Yrotation Xrotation
									JOINT RightHandIndex1
									{
										OFFSET -0.622530 -0.000000 -0.000000
										CHANNELS 3 Zrotation Yrotation Xrotation
										End Site
										{
											OFFSET 0.000000 0.000000 0.000000
										}
									}
								}
								JOINT RThumb
								{
									OFFSET 0.000000 0.000000 0.000000
									CHANNELS 3 Zrotation Yrotation Xrotation
									End Site
									{
										OFFSET 0.000000 0.000000 0.000000
									}
								}
							}
						}
					}
				}
			}
		}
	}
}
MOTION
Frames: 7
Frame Time: 0.008333
-0.107580 18.378658 8.585035 -9.384342 2.554564 15.736769 6.021950 4.410695 -2.455286 -15.577177 -47.810493 15.867721 -3.575739 -1.961295 -3.108872 -14.631354 45.564450 -31.660219 0.606000 4.982700 13.859300 -1.209033 -3.870763 -1.136894 23.325900 24.434006 -2.798170 3.510001 -0.951313 3.343671 7.370058 -24.030811 -2.746069 -0.002200 0.301900 -0.829400 -0.699013 1.419855 8.106670 12.362358 5.537786 -32.029489 -9.502412 -0.343099 -3.688642 -25.279274 -14.973873 11.676540 34.773877 -25.272978 4.520267 7.537600 -12.957500 4.126400 -8.415600 -7.547856 1.685404 -83.199732 9.348275 -4.917920 11.642429 -13.206447 -1.950484 0.147989 1.460854 31.969086 15.473866 -8.225639 -2.749900 -7.125000 0.000000 0.000000 -7.735100 20.078300 4.651700 13.511826 7.672678 1.217798 81.485216 -12.657556 -5.533762 -17.444111 22.719724 -4.349342 0.597335 1.888139 37.633388 13.449175 -30.277343 -7.617600 7.125000 0.000000 0.000000 48.382000 -55.339300 -14.778100 
-0.114198 18.377292 8.583144 -9.664191 2.683081 15.590224 6.194241 4.456848 -2.386466 -15.390988 -47.772488 15.824932 -3.571993 -1.996551 -3.133129 -14.784160 45.702824 -31.352623 0.598600 4.952900 13.774400 -1.026945 -3.872398 -1.010304 23.468218 24.349037 -2.834535 3.505666 -0.952037 3.335522 7.383081 -24.096989 -2.636562 -0.003200 0.363600 -0.999000 -1.240500 1.359684 7.704935 14.198715 5.828395 -30.797012 -10.027439 -0.470060 -3.921407 -25.730135 -15.039266 10.699593 34.540561 -25.390699 5.252045 7.413200 -12.883100 4.330800 -8.674245 -7.521604 1.582927 -83.430748 8.827286 -5.563630 11.732002 -13.324548 -1.980969 0.187066 1.460792 32.142552 15.347953 -8.447256 -2.789900 -7.125000 0.000000 0.000000 -7.841600 19.839300 4.759200 13.364448 7.713215 1.209741 80.993620 -12.217737 -6.118057 -16.863077 22.028252 -4.083747 0.651089 1.858242 38.430442 13.234164 -30.429905 -7.511600 7.125000 0.000000 0.000000 48.322300 -55.502800 -14.961900 
-0.118085 18.377082 8.579782 -10.048360 2.874538 15.444337 6.403910 4.491948 -2.314365 -14.980607 -47.583399 15.579743 -3.568470 -2.033892 -3.138970 -14.806938 45.604611 -30.959941 0.588200 4.910200 13.652800 -0.807426 -3.864594 -0.868476 23.662750 24.169634 -2.967702 3.495949 -0.987201 3.417736 7.325587 -23.959488 -2.570091 -0.003500 0.380300 -1.045000 -1.827903 1.294991 7.283110 16.416413 6.157148 -29.465466 -10.672726 -0.631604 -4.203114 -26.156627 -15.113991 9.802575 34.315781 -25.451198 5.666717 7.317100 -12.828500 4.476700 -8.948502 -7.508257 1.462138 -83.793590 8.283243 -6.543921 11.835351 -13.470205 -2.022501 0.250112 1.475972 32.565741 15.254461 -8.857338 -2.892800 -7.125000 0.000000 0.000000 -7.925700 19.381300 4.893100 13.105319 7.752359 1.191209 80.517347 -11.843373 -6.670163 -16.333317 21.400962 -3.850437 0.702233 1.826024 39.306595 13.080794 -30.584905 -7.440400 7.125000 0.000000 0.000000 48.317600 -55.652600 -15.151100 
-0.119451 18.376031 8.577681 -10.351529 3.074205 15.260704 6.587458 4.532421 -2.233235 -14.795502 -47.526848 15.558663 -3.571637 -2.078983 -3.155567 -14.798647 45.515579 -30.786159 0.587400 4.907000 13.643600 -0.610456 -3.860447 -0.712998 23.776609 23.856749 -3.130311 3.483991 -1.030747 3.533425 7.223951 -23.683381 -2.466535 -0.002300 0.313100 -0.860200 -2.366722 1.210300 6.882838 18.451852 6.354293 -28.037825 -11.247839 -0.807445 -4.573552 -26.679246 -15.187135 8.875862 34.190093 -25.512840 6.132664 7.252000 -12.771100 4.648000 -9.184279 -7.484224 1.333430 -84.154504 7.791976 -7.236401 11.965067 -13.651779 -2.072651 0.300796 1.484393 32.638247 15.147022 -9.260669 -2.986100 -7.125000 0.000000 0.000000 -8.021300 18.940600 5.032800 12.874241 7.780419 1.163179 80.025463 -11.495236 -7.276376 -15.832169 20.810062 -3.637944 0.744936 1.798760 40.143724 13.030774 -30.671176 -7.417200 7.125000 0.000000 0.000000 48.340800 -55.729600 -15.259200 
-0.123128 18.378658 8.584614 -10.243314 3.205540 15.223805 6.645327 4.588375 -2.166857 -15.075602 -47.780516 15.707057 -3.575803 -2.101264 -3.169083 -14.821813 45.581683 -30.915924 0.586400 4.903200 13.632600 -0.510423 -3.875086 -0.623843 23.583463 24.180268 -2.920975 3.499071 -0.967372 3.386668 7.363084 -24.020212 -2.770479 -0.000300 -0.116200 0.319200 -2.872244 1.048893 6.430477 19.377922 6.228895 -26.961246 -11.314062 -0.947602 -4.777262 -26.672365 -15.419017 7.779291 33.717726 -25.684191 6.786234 7.036400 -12.728500 4.823900 -9.343350 -7.454782 1.231076 -84.331167 7.491046 -6.538966 12.178607 -13.893915 -2.124803 0.226912 1.428543 31.168531 15.056651 -8.875500 -2.841700 -7.125000 0.000000 0.000000 -8.093600 19.416800 4.992400 12.824392 7.788401 1.146771 79.512354 -11.109369 -8.021766 -15.288442 20.167104 -3.427227 0.785789 1.796594 40.707573 13.347816 -30.923666 -7.643100 7.125000 0.000000 0.000000 48.875600 -55.861600 -15.664900 
-0.125650 18.383385 8.594280 -10.050990 3.418087 15.385376 6.560433 4.587716 -2.196109 -15.184013 -48.116203 15.694431 -3.564645 -2.086812 -3.197030 -14.925002 45.764905 -30.935221 0.561100 4.798100 13.333500 -0.566528 -3.931924 -0.673152 23.576036 25.098577 -2.341992 3.540061 -0.818410 3.011883 7.718297 -24.966208 -3.547083 -0.014700 -0.783600 2.153500 -2.593725 0.964665 6.679183 18.763274 5.990921 -27.233949 -11.157161 -1.017361 -5.071576 -26.889137 -15.719684 6.669306 33.476118 -26.188389 8.212325 6.882800 -12.763400 5.217500 -9.244429 -7.326705 1.252176 -84.359785 7.675156 -4.627932 12.437685 -14.191100 -2.177905 0.032342 1.300522 28.588490 15.081292 -7.620962 -2.457500 -7.125000 0.000000 0.000000 -8.071500 20.890300 4.708900 12.983403 7.788260 1.235641 79.256836 -11.069528 -9.077888 -14.734101 19.494555 -3.222584 0.824739 1.817448 41.048482 13.910021 -31.464885 -8.081800 7.125000 0.000000 0.000000 49.946300 -56.153500 -16.532400 
-0.121027 18.382755 8.591233 -10.439807 3.830991 15.304587 6.661812 4.575135 -2.235297 -14.821083 -48.184080 15.641874 -3.549776 -2.086300 -3.205522 -15.070700 45.871719 -30.500929 0.504800 4.554500 12.642100 -0.478251 -3.987703 -0.646490 24.073441 25.423736 -1.970323 3.560237 -0.748539 2.822909 7.882504 -25.470275 -3.982172 -0.026400 -1.049300 2.884400 -2.388153 0.987529 6.899030 19.686875 6.206335 -27.320496 -11.636960 -1.116038 -5.319981 -27.393620 -15.600990 6.687368 33.443585 -26.189783 8.427091 6.955500 -12.749900 5.295900 -9.232706 -7.299202 1.229820 -84.699741 7.874374 -3.582837 12.642648 -14.445507 -2.234842 -0.075199 1.219485 27.070182 15.131625 -6.899311 -2.239100 -7.125000 0.000000 0.000000 -8.037900 21.738000 4.533200 12.774976 7.796798 1.285557 79.091952 -11.267015 -10.308967 -14.272461 18.924641 -3.051065 0.868452 1.801655 41.855379 14.140880 -31.766415 -8.272500 7.125000 0.000000 0.000000 50.455700 -56.326000 -16.999100 
